<?xml version="1.0" encoding="UTF-8" standalone="no"?>
<!-- Created with Inkscape (http://www.inkscape.org/) -->

<svg
   width="138.603mm"
   height="65.6408mm"
   viewBox="0 0 138.603 65.6408"
   version="1.1"
   id="svg5"
   xml:space="preserve"
   inkscape:version="1.2.2 (b0a8486, 2022-12-01)"
   sodipodi:docname="zoe.svg"
   xmlns:inkscape="http://www.inkscape.org/namespaces/inkscape"
   xmlns:sodipodi="http://sodipodi.sourceforge.net/DTD/sodipodi-0.dtd"
   xmlns="http://www.w3.org/2000/svg"
   xmlns:svg="http://www.w3.org/2000/svg"><sodipodi:namedview
     id="namedview7"
     pagecolor="#ffffff"
     bordercolor="#000000"
     borderopacity="0.25"
     inkscape:showpageshadow="2"
     inkscape:pageopacity="0.0"
     inkscape:pagecheckerboard="0"
     inkscape:deskcolor="#d1d1d1"
     inkscape:document-units="mm"
     showgrid="false"
     inkscape:zoom="1.1893044"
     inkscape:cx="241.73794"
     inkscape:cy="171.10842"
     inkscape:window-width="1680"
     inkscape:window-height="919"
     inkscape:window-x="1920"
     inkscape:window-y="25"
     inkscape:window-maximized="1"
     inkscape:current-layer="Car" /><defs
     id="defs2" /><g
     inkscape:label="Layer 1"
     inkscape:groupmode="layer"
     id="layer1"
     transform="translate(-0.53317186,-0.54825491)"><g
       id="g21716"><g
         id="Car"
         transform="translate(-37.125,-43.417373)"><path
           id="Body"
           style="fill:#f5f5f5;stroke:#000000;stroke-width:1;stroke-dasharray:none;stroke-opacity:1;fill-opacity:1"
           d="M 173.69266,58.954275 C 169.18766,47.997674 156.39569,48.053294 156.39569,48.053294 L 128.2071,48.68723 79.83448,48.60858 C 70.991338,47.718704 67.485698,47.822035 67.485698,47.822035 57.975149,47.988887 53.563824,49.552436 53.563824,49.552436 38.046613,58.784899 38.158183,76.545267 38.158183,76.545267 c 0,0 -0.09023,17.760368 15.426984,26.992833 0,0 4.411325,1.56355 13.921874,1.7304 0,0 3.50564,0.10333 12.348782,-0.78655 l 48.372617,-0.0786 28.18859,0.63394 c 0,0 12.79197,0.0556 17.29697,-10.900981 2.00222,-4.171293 2.04716,-17.591017 2.04716,-17.591017 0,0 -0.0663,-13.419724 -2.0685,-17.591017 z"
           sodipodi:nodetypes="ccccccccccccccc" /><path
           id="WindShield"
           style="fill:#5ec1c7;fill-opacity:1;stroke:#202e37;stroke-width:1;stroke-dasharray:none;stroke-opacity:1"
           d="m 65.517108,60.011006 c 2.22469,-4.22691 6.284749,-6.117898 8.787525,-6.507219 v 0 c 10.066721,1.724135 25.583934,4.338145 25.583934,4.338145 -2.169073,5.172404 -3.559506,12.513881 -3.486214,19.044015 -0.03794,6.530134 1.352491,13.871611 3.521564,19.044015 0,0 -15.517213,2.61401 -25.583934,4.338148 v 0 c -2.502776,-0.389324 -6.562835,-2.280312 -8.787525,-6.507222 -2.280307,-5.116787 -2.98052,-16.953596 -2.98052,-16.953596 0,0 0.664863,-11.679499 2.94517,-16.796286 z"
           sodipodi:nodetypes="csscccssccc" /><path
           id="RearWindow"
           style="fill:#5ec1c7;fill-opacity:1;stroke:#202e37;stroke-width:1;stroke-dasharray:none;stroke-opacity:1"
           d="m 162.89381,57.260593 c -2.05695,-1.136473 -4.33095,-1.598885 -6.74143,-1.585555 -1.15889,0.0064 -2.34932,0.122782 -3.56234,0.32708 6.05322,4.519219 9.28125,10.225107 9.11132,20.715302 0.1447,10.490194 -3.08333,16.196082 -9.13655,20.715301 1.21302,0.204298 2.40345,0.320671 3.56234,0.32708 2.41048,0.01333 4.68448,-0.449082 6.74143,-1.585555 4.13667,-4.404473 6.44968,-9.123941 6.4623,-19.456826 0.0126,-10.332886 -2.3004,-15.052354 -6.43707,-19.456827 z"
           sodipodi:nodetypes="cscccsccc" /><path
           style="fill:#5ec1c7;fill-opacity:1;stroke:#202e37;stroke-width:1;stroke-dasharray:none;stroke-opacity:1"
           d="m 75.665784,50.968219 c 4.011388,1.455111 29.377516,6.095738 44.046606,6.135065 3.93273,0 24.81555,0.393272 24.81555,0.393272 -1.04665,-1.320644 -0.30912,-2.365134 0.0787,-2.752913 1.5715,-0.907303 3.57879,-1.887712 3.57879,-1.887712 -7.07892,-1.730403 -68.272244,-1.730403 -72.519596,-1.887712 z"
           id="SideWindow"
           sodipodi:nodetypes="cccccc" /><path
           style="fill:#5ec1c7;fill-opacity:1;stroke:#202e37;stroke-width:1;stroke-dasharray:none;stroke-opacity:1"
           d="m 75.885405,102.37897 c 4.01139,-1.45511 29.377505,-6.095736 44.046595,-6.135063 3.93273,0 24.81555,-0.393272 24.81555,-0.393272 -1.04665,1.320644 -0.30912,2.365134 0.0787,2.752913 1.5715,0.907303 3.57879,1.887712 3.57879,1.887712 -7.07892,1.7304 -68.272235,1.7304 -72.519585,1.88771 z"
           id="SideWindow2"
           sodipodi:nodetypes="cccccc" /><path
           style="fill:none;stroke:#151d28;stroke-width:1;stroke-dasharray:none;stroke-opacity:1"
           d="M 59.148303,52.934586 C 46.799521,53.091895 41.765625,71.103813 41.68697,76.45233 c 0.204454,5.687138 1.887895,20.689288 17.225371,23.91102"
           id="Hood"
           sodipodi:nodetypes="ccc" /><path
           style="fill:#151d28;fill-opacity:1;stroke:none;stroke-width:1;stroke-dasharray:none;stroke-opacity:0.47234"
           d="m 43.967954,75.587129 -0.07865,2.831566 -2.20233,2.280985 1.966366,7.708157 -2.831567,-7.550847 -1.651748,-2.320313 -0.157305,-3.500131 1.651747,-2.04502 3.067532,-7.39354 c -1.643215,3.047494 0.631198,-0.784342 -2.202329,7.865467 z"
           id="Logo"
           sodipodi:nodetypes="ccccccccccc" /><path
           style="fill:#202e37;fill-opacity:1;stroke:none;stroke-width:1;stroke-dasharray:none;stroke-opacity:1"
           d="m 113.65599,51.597456 6.84296,0.314624 1.8877,5.112553 -5.74179,-0.157304 z"
           id="SidePillar"
           sodipodi:nodetypes="ccccc" /><path
           style="fill:#202e37;fill-opacity:1;stroke:none;stroke-width:1;stroke-dasharray:none;stroke-opacity:1"
           d="m 113.25279,101.51373 6.84296,-10e-6 1.57308,-5.112553 -5.42717,0.157304 z"
           id="SidePillar2"
           sodipodi:nodetypes="ccccc" /><path
           style="fill:#386d9b;fill-opacity:1;stroke:#202e37;stroke-width:1;stroke-dasharray:none;stroke-opacity:1"
           d="m 158.09586,50.81091 c 0,0 0.92634,1.354023 2.28099,2.831567 1.80906,1.651748 8.10143,4.640626 8.10143,4.640626 -1.10116,-3.775424 -4.32601,-6.449682 -10.38242,-7.472193 z"
           id="RearLight"
           sodipodi:nodetypes="cccc" /><path
           style="fill:#386d9b;fill-opacity:1;stroke:#202e37;stroke-width:1;stroke-dasharray:none;stroke-opacity:1"
           d="m 158.23843,102.88272 c 0,0 0.92634,-1.35402 2.28099,-2.83157 1.80906,-1.651744 8.10143,-4.640622 8.10143,-4.640622 -1.10116,3.775424 -4.32601,6.449682 -10.38242,7.472192 z"
           id="RearLight-9"
           sodipodi:nodetypes="cccc" /><path
           style="fill:#151d28;fill-opacity:1;stroke:none;stroke-width:1;stroke-dasharray:none;stroke-opacity:1"
           d="m 87.149365,53.32786 3.460803,-9.123942 c 0,0 -1.573094,-0.629236 -3.146187,0.157311 -1.887712,2.516949 -3.775422,5.505826 -3.775422,5.505826 -2.35964,1.415784 -5.977754,1.415783 -5.977754,1.415783 z"
           id="Mirror1"
           sodipodi:nodetypes="cccccc" /><path
           style="fill:#151d28;fill-opacity:1;stroke:none;stroke-width:1;stroke-dasharray:none;stroke-opacity:1"
           d="m 86.992058,100.2442 3.4608,9.12394 c 0,0 -1.57309,0.62924 -3.14619,-0.15731 -1.88771,-2.51695 -3.77542,-5.50582 -3.77542,-5.50582 -2.35964,-1.41579 -5.97775,-1.41579 -5.97775,-1.41579 z"
           id="Mirror2"
           sodipodi:nodetypes="cccccc" /></g></g></g></svg>
